<svg aria-hidden="true" style="position: absolute; width: 0; height: 0; overflow: hidden;" version="1.1" xmlns="http://www.w3.org/2000/svg" xmlns:xlink="http://www.w3.org/1999/xlink">
<defs>
<symbol id="icon-arrow-left" viewBox="0 0 32 32">
<path d="M21.895 32c-1.093 0-2.119-0.425-2.892-1.197l-11.791-11.792c-0.792-0.792-1.225-1.887-1.193-3.010-0.033-1.124 0.401-2.22 1.193-3.013l11.792-11.791c0.772-0.772 1.799-1.198 2.892-1.198s2.119 0.425 2.892 1.198c1.595 1.595 1.595 4.189 0 5.784l-9.019 9.018 9.018 9.018c1.595 1.594 1.595 4.189 0 5.784-0.773 0.773-1.8 1.198-2.891 1.198zM21.895 1.925c-0.578 0-1.122 0.225-1.532 0.634l-11.563 11.791c-0.429 0.43-0.401 1.003-0.401 1.614 0 0.025 0 0.049 0 0.073 0 0.612-0.028 1.184 0.401 1.613l11.677 11.791c0.409 0.409 0.896 0.634 1.474 0.634s1.093-0.225 1.503-0.634c0.844-0.844 0.83-2.218-0.014-3.063l-9.706-9.698c-0.376-0.376-0.379-0.985-0.003-1.361l9.697-9.698c0.844-0.844 0.843-2.218-0-3.063-0.409-0.409-0.954-0.634-1.532-0.634z"></path>
</symbol>
<symbol id="icon-arrow-up" viewBox="0 0 32 32">
<path d="M28.751 25.626c-0.868 0-1.684-0.339-2.298-0.952l-10.454-10.455-10.454 10.454c-0.613 0.614-1.429 0.952-2.298 0.952s-1.685-0.338-2.298-0.952c-1.267-1.267-1.267-3.328 0-4.595l12.752-12.753c0.613-0.614 1.429-0.952 2.297-0.952s1.684 0.338 2.298 0.952l12.752 12.753c0.614 0.614 0.952 1.429 0.952 2.298 0 0.867-0.338 1.684-0.952 2.298s-1.429 0.952-2.297 0.952zM15.999 12.177l11.475 11.476c0.682 0.682 1.87 0.682 2.553 0 0.342-0.342 0.529-0.795 0.529-1.277s-0.188-0.935-0.529-1.277l-12.784-12.784c-0.682-0.651-1.849-0.641-2.519 0.031l-12.753 12.753c-0.704 0.704-0.704 1.849 0 2.553 0.682 0.682 1.872 0.682 2.553 0l11.475-11.475z"></path>
</symbol>
<symbol id="en" viewBox="6 4 20 24">
<path fill="#fefefe" style="fill: var(--color1, #fefefe)" d="M1.67 27.287h28.777c0.925-0.052 1.67-0.826 1.67-1.763v-18.816c0-0.966-0.785-1.757-1.751-1.763h-28.614c-0.966 0.006-1.751 0.797-1.751 1.763v18.81c0 0.943 0.745 1.716 1.67 1.769v0z"></path>
<path fill="#c8102e" style="fill: var(--color2, #c8102e)" d="M13.812 18.345v8.943h4.468v-8.943h13.836v-4.468h-13.836v-8.931h-4.468v8.931h-13.812v4.468h13.812z"></path>
<path fill="#012169" style="fill: var(--color3, #012169)" d="M19.77 12.177v-7.232h10.607c0.733 0.012 1.361 0.471 1.617 1.117l-12.224 6.115z"></path>
<path fill="#012169" style="fill: var(--color3, #012169)" d="M19.77 20.055v7.232h10.676c0.704-0.041 1.297-0.495 1.548-1.117l-12.224-6.115z"></path>
<path fill="#012169" style="fill: var(--color3, #012169)" d="M12.323 20.055v7.232h-10.653c-0.704-0.041-1.303-0.495-1.548-1.129l12.201-6.103z"></path>
<path fill="#012169" style="fill: var(--color3, #012169)" d="M12.323 12.177v-7.232h-10.583c-0.733 0.012-1.367 0.477-1.617 1.129l12.201 6.103z"></path>
<path fill="#012169" style="fill: var(--color3, #012169)" d="M0 12.393h4.451l-4.451-2.228v2.228z"></path>
<path fill="#012169" style="fill: var(--color3, #012169)" d="M32.116 12.393h-4.474l4.474-2.24v2.24z"></path>
<path fill="#012169" style="fill: var(--color3, #012169)" d="M32.116 19.84h-4.474l4.474 2.24v-2.24z"></path>
<path fill="#012169" style="fill: var(--color3, #012169)" d="M0 19.84h4.451l-4.451 2.228v-2.228z"></path>
<path fill="#c8102e" style="fill: var(--color2, #c8102e)" d="M32.116 6.836l-11.084 5.556h2.479l8.605-4.305v-1.251z"></path>
<path fill="#c8102e" style="fill: var(--color2, #c8102e)" d="M11.060 19.84h-2.479l-8.582 4.294v1.251l11.084-5.545h-0.023z"></path>
<path fill="#c8102e" style="fill: var(--color2, #c8102e)" d="M6.121 12.399h2.479l-8.599-4.305v1.245l6.121 3.060z"></path>
<path fill="#c8102e" style="fill: var(--color2, #c8102e)" d="M25.967 19.834h-2.479l8.628 4.323v-1.245l-6.15-3.078z"></path>
</symbol>
<symbol id="uk" viewBox="6 4 20 24">
<path fill="#005bbb" style="fill: var(--color4, #005bbb)" d="M1.763 4.945h28.585c0.972 0 1.763 0.791 1.763 1.763v18.81c0 0.972-0.797 1.763-1.763 1.763h-28.585c-0.966 0.006-1.763-0.785-1.763-1.757v-18.816c0-0.972 0.797-1.763 1.763-1.763v0z"></path>
<path fill="#ffd500" style="fill: var(--color5, #ffd500)" d="M0 16.116h32.116v9.408c0 0.972-0.797 1.763-1.763 1.763h-28.591c-0.966 0-1.763-0.791-1.763-1.763v-9.408z"></path>
</symbol>
<symbol id="icon-heart" viewBox="0 0 32 32">
<path fill="#ff0000" style="fill:var(--color2, #ff0000)" d="m16 31-2-3C5 21 0 16 0 10c0-5 4-9 9-9 3 0 5 1 7 4 2-3 4-4 7-4 5 0 9 4 9 9 0 6-5 11-14 18l-2 3z"/>
</symbol>
<symbol id="icon-rating-like" viewBox="0 0 32 32">
<path fill="#ffec5c" style="fill: var(--color6, #ffec5c)" d="M23.264 18.413l4.552-4.637c0.26-0.264 0.179-0.588 0.147-0.682-0.035-0.105-0.149-0.355-0.446-0.4l-6.29-0.955c-0.835-0.126-1.555-0.669-1.924-1.45l-2.813-5.956c-0.142-0.3-0.39-0.333-0.49-0.333s-0.348 0.033-0.49 0.333l-2.813 5.956c-0.37 0.781-1.089 1.324-1.925 1.45l-6.29 0.955c-0.296 0.045-0.41 0.294-0.445 0.4-0.031 0.093-0.112 0.417 0.147 0.682l4.552 4.637c0.588 0.599 0.858 1.459 0.72 2.3l-1.074 6.547c-0.063 0.386 0.177 0.589 0.252 0.642 0.119 0.084 0.306 0.154 0.535 0.032l5.626-3.091c0.754-0.417 1.655-0.415 2.41 0l5.626 3.091c0.226 0.123 0.416 0.052 0.534-0.031 0.075-0.054 0.315-0.257 0.253-0.643l-1.074-6.547c-0.138-0.842 0.132-1.701 0.72-2.3z"></path>
<path fill="#b2a32f" style="fill: var(--color7, #b2a32f)" d="M29.243 15.177c0.701-0.715 0.938-1.755 0.616-2.716-0.311-0.932-1.093-1.6-2.042-1.744l-6.291-0.955c-0.176-0.027-0.331-0.149-0.415-0.327l-2.813-5.956c-0.431-0.912-1.311-1.479-2.298-1.479 0 0 0 0 0 0-0.987 0-1.868 0.567-2.298 1.479l-2.813 5.956c-0.084 0.178-0.24 0.3-0.416 0.327l-6.291 0.955c-0.949 0.145-1.731 0.813-2.042 1.745-0.32 0.961-0.083 2.001 0.618 2.716l4.552 4.637c0.144 0.146 0.209 0.361 0.174 0.574l-1.075 6.547c-0.167 1.018 0.244 2.014 1.071 2.6 0.436 0.308 0.939 0.463 1.446 0.463 0.413 0 0.827-0.104 1.207-0.312l5.626-3.091c0.153-0.084 0.328-0.084 0.483 0l5.625 3.091c0.849 0.466 1.862 0.407 2.652-0.15 0.828-0.585 1.239-1.581 1.071-2.6l-1.073-6.546c-0.035-0.214 0.029-0.43 0.174-0.576l4.552-4.638zM23.365 27.902c-0.118 0.083-0.309 0.154-0.534 0.031l-5.626-3.091c-0.754-0.415-1.655-0.417-2.41 0l-5.626 3.091c-0.229 0.122-0.417 0.052-0.535-0.032-0.075-0.053-0.316-0.256-0.252-0.642l1.075-6.547c0.138-0.841-0.132-1.701-0.72-2.3l-4.552-4.637c-0.26-0.265-0.179-0.589-0.147-0.682 0.035-0.105 0.149-0.355 0.445-0.4l6.29-0.955c0.836-0.126 1.555-0.669 1.925-1.45l2.813-5.956c0.141-0.299 0.389-0.332 0.489-0.332s0.348 0.033 0.489 0.333l2.813 5.956c0.369 0.781 1.089 1.324 1.924 1.45l6.29 0.955c0.297 0.045 0.411 0.294 0.446 0.4 0.031 0.093 0.112 0.417-0.147 0.682l-4.552 4.637c-0.588 0.599-0.857 1.458-0.72 2.3l1.074 6.547c0.064 0.386-0.177 0.589-0.252 0.642z"></path>
</symbol>
<symbol id="icon-search" viewBox="0 0 32 32">
<path stroke-linejoin="round" stroke-linecap="round" stroke-miterlimit="4" stroke-width="1.7778" d="M14.667 25.333c5.891 0 10.667-4.776 10.667-10.667s-4.776-10.667-10.667-10.667c-5.891 0-10.667 4.776-10.667 10.667s4.776 10.667 10.667 10.667z"></path>
<path stroke-linejoin="round" stroke-linecap="round" stroke-miterlimit="4" stroke-width="1.7778" d="M28 28.001l-5.8-5.8"></path>
</symbol>
<symbol id="icon-theme-moon" viewBox="0 0 32 32">
<path fill="#000" style="fill: var(--color8, #000)" d="M19.014 21.631c1.172-0.659 2.106-1.578 2.77-2.645-0.191 0.135-0.39 0.261-0.598 0.378-3.28 1.844-7.433 0.679-9.277-2.601s-0.679-7.433 2.601-9.277c0.208-0.117 0.419-0.222 0.634-0.315-1.256 0.013-2.527 0.333-3.699 0.992-3.719 2.090-5.039 6.8-2.949 10.519s6.8 5.039 10.519 2.949z"></path>
<path fill="#fcee26" style="fill: var(--color9, #fcee26)" d="M15.176 14.575l1.207-0.175 0.54-1.094 0.54 1.094 1.208 0.175-0.874 0.852 0.206 1.202-1.080-0.568-1.080 0.568 0.206-1.202z"></path>
<path fill="#fcee21" style="fill: var(--color10, #fcee21)" d="M18.135 11.825l0.197-0.398 0.197 0.398 0.44 0.064-0.318 0.31 0.075 0.438-0.393-0.207-0.393 0.207 0.075-0.438-0.318-0.31z"></path>
<path fill="#fcee21" style="fill: var(--color10, #fcee21)" d="M14.527 11.506l0.104-0.61-0.443-0.432 0.612-0.089 0.274-0.555 0.274 0.555 0.612 0.089-0.444 0.432 0.105 0.61-0.548-0.288z"></path>
</symbol>
<symbol id="icon-theme-sun" viewBox="0 0 32 32">
<path fill="#fb0" style="fill: var(--color11, #fb0)" d="M27.721 26.907c-0.044 0.046-5.684-2.646-5.735-2.61s0.725 6.239 0.668 6.265c-0.057 0.027-4.238-4.62-4.299-4.605s-1.717 6.042-1.78 6.044-2.147-5.89-2.21-5.9c-0.062-0.010-3.898 4.924-3.957 4.902s0.27-6.263 0.216-6.297c-0.054-0.033-5.486 3.058-5.532 3.015s2.647-5.683 2.61-5.735c-0.037-0.051-6.239 0.726-6.265 0.669s4.62-4.238 4.605-4.3c-0.015-0.061-6.041-1.717-6.044-1.78s5.891-2.147 5.9-2.209c0.010-0.062-4.924-3.898-4.902-3.958s6.264 0.271 6.297 0.217c0.033-0.054-3.058-5.486-3.015-5.532s5.684 2.646 5.735 2.609c0.051-0.036-0.725-6.239-0.668-6.265s4.237 4.621 4.299 4.606c0.061-0.015 1.717-6.042 1.78-6.044s2.147 5.89 2.21 5.9c0.062 0.010 3.898-4.924 3.957-4.902s-0.27 6.263-0.216 6.297c0.053 0.033 5.486-3.058 5.532-3.015s-2.647 5.683-2.61 5.735c0.037 0.051 6.239-0.726 6.265-0.669s-4.62 4.238-4.605 4.299c0.015 0.062 6.041 1.717 6.043 1.78s-5.89 2.147-5.9 2.21c-0.009 0.062 4.925 3.898 4.903 3.957s-6.264-0.27-6.297-0.216c-0.033 0.054 3.058 5.486 3.015 5.532z"></path>
<path fill="#000" style="fill: var(--color8, #000)" d="M26.876 26.121c-0.036 0.038-4.847-1.855-4.889-1.824s0.236 5.194 0.189 5.215-3.769-3.568-3.82-3.556c-0.051 0.012-1.769 4.889-1.821 4.891s-2.117-4.739-2.168-4.747c-0.052-0.009-3.505 3.839-3.554 3.821s-0.142-5.188-0.187-5.215-4.708 2.206-4.746 2.171c-0.038-0.036 1.854-4.847 1.823-4.89s-5.194 0.237-5.215 0.189c-0.022-0.047 3.568-3.769 3.556-3.82s-4.889-1.769-4.891-1.821c-0.001-0.052 4.739-2.116 4.747-2.168s-3.839-3.505-3.821-3.555c0.018-0.049 5.188-0.142 5.215-0.186s-2.205-4.708-2.17-4.746c0.036-0.038 4.847 1.854 4.889 1.823s-0.236-5.194-0.189-5.215c0.047-0.022 3.769 3.568 3.82 3.556s1.769-4.889 1.821-4.891c0.052-0.002 2.117 4.738 2.168 4.747s3.505-3.839 3.554-3.821 0.142 5.188 0.187 5.215c0.044 0.027 4.708-2.206 4.746-2.171s-1.854 4.847-1.823 4.89c0.030 0.042 5.194-0.237 5.215-0.19s-3.568 3.769-3.556 3.82c0.012 0.051 4.889 1.77 4.89 1.821s-4.738 2.117-4.747 2.168c-0.008 0.052 3.84 3.505 3.822 3.554s-5.189 0.142-5.215 0.187c-0.028 0.044 2.205 4.708 2.17 4.746z"></path>
<path fill="#000" style="fill: var(--color8, #000)" d="M15.683 4.409c-0.516-0.024-0.989 0.29-1.166 0.776-0.028 0.078-0.070 0.19-0.097 0.263-0.085 0.23-0.157 0.421-0.211 0.563-0.031 0.080-0.050 0.129-0.068 0.173-0.008 0.020-0.004 0.012-0.032 0.068-0.039 0.078 0.001 0.005-0.031 0.057-0.042 0.067 0.002 0.007-0.050 0.066-0.074 0.085-0.070 0.083-0.089 0.107-0.031 0.012-0.076 0.030-0.177 0.054s-0.146 0.029-0.179 0.032c-0.028-0.013-0.023-0.014-0.129-0.057-0.074-0.030-0.009 0.003-0.075-0.036-0.057-0.035 0.006 0.007-0.052-0.036-0.043-0.033-0.031-0.025-0.059-0.048-0.039-0.033-0.077-0.067-0.139-0.123-0.113-0.103-0.264-0.241-0.442-0.408-0.039-0.036-0.125-0.123-0.204-0.197-0.351-0.33-0.866-0.414-1.303-0.214s-0.709 0.646-0.689 1.126c0.004 0.081 0.008 0.203 0.012 0.286 0.009 0.25 0.019 0.457 0.023 0.601 0.001 0.073 0.003 0.121 0.002 0.182 0 0.057 0.001 0.035-0.002 0.077-0.004 0.059 0.003-0.004-0.009 0.066-0.013 0.079 0.006 0.003-0.020 0.079-0.036 0.107-0.032 0.102-0.041 0.131-0.024 0.023-0.057 0.057-0.143 0.118-0.084 0.060-0.125 0.082-0.154 0.097-0.032-0.001-0.026-0.003-0.139-0.002-0.086 0.001-0.021 0.005-0.084-0.004-0.059-0.009 0.023 0.007-0.063-0.016-0.052-0.013-0.039-0.009-0.073-0.020-0.049-0.016-0.098-0.033-0.175-0.061-0.141-0.051-0.332-0.122-0.563-0.209-0.065-0.025-0.179-0.067-0.265-0.099-0.45-0.171-0.957-0.052-1.285 0.299s-0.41 0.866-0.209 1.303c0.038 0.081 0.090 0.19 0.121 0.256 0.104 0.224 0.187 0.411 0.248 0.547 0.035 0.080 0.057 0.128 0.075 0.17 0.010 0.026 0.006 0.015 0.025 0.070 0.030 0.088 0.008 0.007 0.020 0.064 0.020 0.088 0.007 0.002 0.012 0.079 0.007 0.111 0.008 0.106 0.012 0.137-0.014 0.030-0.033 0.076-0.089 0.166-0.055 0.089-0.083 0.126-0.105 0.152-0.028 0.011-0.025 0.006-0.129 0.050-0.070 0.030 0.009 0.004-0.077 0.025-0.070 0.017-0.010 0.007-0.064 0.014-0.051 0.007-0.036 0.004-0.077 0.007-0.057 0.005-0.108 0.008-0.184 0.012-0.146 0.007-0.353 0.015-0.601 0.023-0.079 0.003-0.199 0.007-0.284 0.009-0.481 0.015-0.906 0.319-1.073 0.77s-0.046 0.959 0.309 1.284c0.070 0.065 0.16 0.146 0.208 0.19 0.184 0.17 0.335 0.309 0.441 0.409 0.048 0.046 0.086 0.084 0.134 0.131 0.036 0.037 0.022 0.020 0.052 0.054 0.063 0.073 0.004 0.002 0.038 0.050 0.036 0.050 0.005-0.004 0.043 0.073 0.052 0.104 0.052 0.098 0.066 0.125-0.001 0.033-0.004 0.079-0.020 0.182s-0.028 0.145-0.038 0.177c-0.022 0.020-0.021 0.017-0.102 0.1-0.056 0.057 0.005 0.004-0.061 0.052-0.048 0.036 0.024-0.010-0.054 0.036-0.040 0.023-0.024 0.014-0.068 0.036-0.054 0.028-0.099 0.048-0.166 0.079-0.138 0.065-0.324 0.151-0.547 0.252-0.062 0.028-0.172 0.078-0.256 0.116-0.438 0.198-0.712 0.64-0.694 1.121s0.323 0.901 0.773 1.067c0.086 0.032 0.2 0.073 0.266 0.097 0.228 0.084 0.416 0.155 0.56 0.211 0.081 0.031 0.131 0.050 0.173 0.068 0.038 0.016 0.025 0.009 0.070 0.032 0.079 0.039 0.005-0.001 0.057 0.031 0.052 0.033-0.002-0.007 0.063 0.050 0.085 0.074 0.083 0.070 0.107 0.089 0.012 0.031 0.030 0.076 0.054 0.177 0.015 0.064 0.016 0.078 0.025 0.184 0.029 0.331 0.197 0.635 0.461 0.837s0.602 0.282 0.929 0.222c5.344 0.081 11.842-2.020 16.756-5.128 0.339-0.129 0.601-0.407 0.708-0.754-0.013 0.044-0.032 0.108 0.073-0.15 0.030-0.074-0.003-0.009 0.036-0.075 0.035-0.057-0.007 0.004 0.036-0.052 0.022-0.028 0.004-0.004 0.050-0.059 0.045-0.053 0.076-0.088 0.121-0.137 0.103-0.113 0.242-0.264 0.408-0.442 0.047-0.051 0.132-0.139 0.195-0.207 0.33-0.35 0.414-0.866 0.214-1.303s-0.646-0.71-1.126-0.689c-0.104 0.004-0.225 0.011-0.282 0.013-0.243 0.010-0.447 0.017-0.601 0.021-0.074 0.001-0.124 0.002-0.184 0.002s-0.032 0.001-0.075-0.002c-0.060-0.004 0.005 0.002-0.064-0.009-0.080-0.014-0.006 0.005-0.081-0.020-0.107-0.036-0.102-0.032-0.131-0.041-0.023-0.024-0.057-0.058-0.118-0.143s-0.083-0.126-0.097-0.155c0.001-0.031 0.003-0.025 0.002-0.138-0.001-0.085-0.005-0.020 0.004-0.084 0.009-0.056-0.009 0.037 0.016-0.061 0.013-0.052 0.009-0.038 0.020-0.073 0.018-0.055 0.036-0.106 0.061-0.177 0.051-0.14 0.122-0.332 0.209-0.563 0.021-0.057 0.065-0.169 0.099-0.264 0.171-0.45 0.053-0.959-0.299-1.286s-0.869-0.41-1.305-0.207c-0.081 0.038-0.19 0.089-0.256 0.121-0.221 0.102-0.406 0.184-0.547 0.247-0.079 0.036-0.127 0.058-0.171 0.076-0.025 0.009-0.014 0.006-0.070 0.025-0.102 0.034-0.009 0.009-0.062 0.020-0.080 0.018-0.003 0.007-0.081 0.012-0.111 0.007-0.106 0.008-0.137 0.011-0.030-0.013-0.076-0.033-0.166-0.089-0.089-0.054-0.124-0.083-0.15-0.104-0.011-0.029-0.008-0.024-0.052-0.129-0.030-0.071-0.004 0.005-0.025-0.080-0.017-0.070-0.007-0.012-0.014-0.063s-0.004-0.036-0.007-0.075c-0.004-0.061-0.007-0.11-0.011-0.184-0.007-0.147-0.015-0.353-0.023-0.601-0.003-0.079-0.007-0.2-0.009-0.283-0.015-0.481-0.319-0.906-0.77-1.073s-0.959-0.046-1.284 0.308c-0.065 0.071-0.145 0.16-0.188 0.207-0.17 0.183-0.309 0.335-0.409 0.44-0.046 0.049-0.084 0.087-0.131 0.134-0.037 0.036-0.020 0.022-0.054 0.052-0.073 0.063-0.002 0.005-0.050 0.039-0.050 0.035 0.004 0.005-0.073 0.043-0.104 0.051-0.098 0.051-0.125 0.066-0.033-0.001-0.079-0.004-0.182-0.021s-0.145-0.028-0.177-0.038c-0.020-0.022-0.017-0.020-0.099-0.102-0.057-0.056-0.003 0.006-0.052-0.062-0.035-0.047 0.011 0.025-0.036-0.054-0.023-0.039-0.013-0.023-0.036-0.068-0.032-0.063-0.054-0.105-0.081-0.163-0.063-0.133-0.147-0.323-0.25-0.549-0.028-0.061-0.078-0.171-0.116-0.256-0.182-0.406-0.577-0.675-1.021-0.697z"></path>
<path fill="#000" style="fill: var(--color8, #000)" d="M23.884 16c0 4.354-3.53 7.884-7.884 7.884s-7.884-3.53-7.884-7.884v0c0-4.354 3.53-7.884 7.884-7.884s7.884 3.53 7.884 7.884v0z"></path>
<path fill="#000" style="fill: var(--color8, #000)" d="M15.414 8.975c-2.852 0-5.334 2.007-5.968 4.695-0.162 0.683-0.029 1.403 0.365 1.984s1.012 0.971 1.707 1.075c0.611 0.091 1.302 0.103 2.233 0.041 1.672-0.112 3.523-0.558 5.505-1.176 0.738-0.23 1.329-0.786 1.602-1.51s0.198-1.531-0.204-2.192c-1.069-1.754-3.054-2.918-5.24-2.918z"></path>
</symbol>
</defs>
</svg>
